<svg xmlns="http://www.w3.org/2000/svg" width="187" height="50" viewBox="0 0 187 50" fill="none"><path d="M184.211 39.8604C183.686 39.8604 183.234 39.7674 182.857 39.5815C182.48 39.3956 182.172 39.1539 181.933 38.8565C181.699 38.559 181.526 38.235 181.415 37.8845C181.303 37.5339 181.248 37.1966 181.248 36.8726V36.6973C181.248 36.3362 181.303 35.9803 181.415 35.6297C181.532 35.2792 181.71 34.9605 181.949 34.6736C182.188 34.3868 182.49 34.1584 182.857 33.9884C183.229 33.8132 183.667 33.7255 184.172 33.7255C184.697 33.7255 185.154 33.8211 185.542 34.0123C185.935 34.1983 186.248 34.4638 186.482 34.8091C186.716 35.149 186.857 35.5474 186.904 36.0042H185.765C185.723 35.7386 185.627 35.5155 185.478 35.3349C185.335 35.149 185.152 35.0109 184.928 34.9206C184.705 34.825 184.453 34.7772 184.172 34.7772C183.885 34.7772 183.63 34.8277 183.407 34.9286C183.184 35.0242 182.998 35.1623 182.849 35.3429C182.7 35.5235 182.586 35.7359 182.506 35.9803C182.432 36.2246 182.395 36.4955 182.395 36.7929C182.395 37.0798 182.432 37.3453 182.506 37.5897C182.586 37.834 182.703 38.0491 182.857 38.235C183.011 38.4156 183.2 38.5564 183.423 38.6573C183.651 38.7582 183.914 38.8087 184.211 38.8087C184.647 38.8087 185.013 38.7025 185.311 38.49C185.614 38.2722 185.797 37.9695 185.861 37.5817H187C186.947 37.996 186.806 38.3758 186.578 38.721C186.349 39.0663 186.036 39.3425 185.638 39.5496C185.239 39.7568 184.764 39.8604 184.211 39.8604Z" fill="#B8CDFF"></path><path d="M179.007 39.709V33.8929H180.139V39.709H179.007Z" fill="#B8CDFF"></path><path d="M172.082 39.709V33.8929H173.938L176.384 38.7689H176.647L176.488 38.9123V33.8929H177.556V39.709H175.691L173.245 34.833H172.974L173.134 34.6896V39.709H172.082Z" fill="#B8CDFF"></path><path d="M169.5 39.709V33.8929H170.631V39.709H169.5Z" fill="#B8CDFF"></path><path d="M165.08 39.709V33.8929H166.211V39.709H165.08ZM166.052 39.709V38.7131H168.561V39.709H166.052Z" fill="#B8CDFF"></path><path d="M161.336 39.8604C160.811 39.8604 160.359 39.7674 159.982 39.5815C159.605 39.3956 159.297 39.1539 159.058 38.8565C158.824 38.559 158.651 38.235 158.54 37.8845C158.428 37.5339 158.373 37.1966 158.373 36.8726V36.6973C158.373 36.3362 158.428 35.9803 158.54 35.6297C158.657 35.2792 158.835 34.9605 159.074 34.6736C159.313 34.3868 159.615 34.1584 159.982 33.9884C160.354 33.8132 160.792 33.7255 161.297 33.7255C161.822 33.7255 162.279 33.8211 162.667 34.0123C163.06 34.1983 163.373 34.4638 163.607 34.8091C163.841 35.149 163.982 35.5474 164.029 36.0042H162.89C162.848 35.7386 162.752 35.5155 162.603 35.3349C162.46 35.149 162.277 35.0109 162.053 34.9206C161.83 34.825 161.578 34.7772 161.297 34.7772C161.01 34.7772 160.755 34.8277 160.532 34.9286C160.309 35.0242 160.123 35.1623 159.974 35.3429C159.825 35.5235 159.711 35.7359 159.631 35.9803C159.557 36.2246 159.52 36.4955 159.52 36.7929C159.52 37.0798 159.557 37.3453 159.631 37.5897C159.711 37.834 159.828 38.0491 159.982 38.235C160.136 38.4156 160.325 38.5564 160.548 38.6573C160.776 38.7582 161.039 38.8087 161.336 38.8087C161.772 38.8087 162.138 38.7025 162.436 38.49C162.739 38.2722 162.922 37.9695 162.986 37.5817H164.125C164.072 37.996 163.931 38.3758 163.703 38.721C163.474 39.0663 163.161 39.3425 162.763 39.5496C162.364 39.7568 161.889 39.8604 161.336 39.8604Z" fill="#B8CDFF"></path><path d="M152.592 39.709V33.8929H153.723V39.709H152.592ZM153.564 39.709V38.7131H156.074V39.709H153.564Z" fill="#B8CDFF"></path><path d="M145.856 39.709L147.84 33.8929H149.688L151.728 39.709H150.565L148.836 34.6657L149.242 34.841H148.246L148.66 34.6657L146.987 39.709H145.856ZM147.242 38.1633L147.601 37.2073H149.959L150.31 38.1633H147.242Z" fill="#B8CDFF"></path><path d="M143.204 39.709V34.7294H144.335V39.709H143.204ZM141.523 34.8888V33.8929H146.017V34.8888H141.523Z" fill="#B8CDFF"></path><path d="M135.147 39.709V33.8929H137.004L139.45 38.7689H139.713L139.553 38.9123V33.8929H140.621V39.709H138.757L136.311 34.833H136.04L136.199 34.6896V39.709H135.147Z" fill="#B8CDFF"></path><path d="M130.401 39.709V33.8929H131.509V39.709H130.401ZM131.349 39.709V38.7529H133.987V39.709H131.349ZM131.349 37.2312V36.2751H133.78V37.2312H131.349ZM131.349 34.8489V33.8929H133.923V34.8489H131.349Z" fill="#B8CDFF"></path><path d="M125.118 39.7409V38.6892H126.321C126.624 38.6892 126.892 38.644 127.126 38.5537C127.365 38.4581 127.567 38.3253 127.731 38.1554C127.896 37.9854 128.021 37.7862 128.106 37.5578C128.196 37.3241 128.241 37.0665 128.241 36.785C128.241 36.4928 128.196 36.2326 128.106 36.0042C128.021 35.7705 127.896 35.5713 127.731 35.4066C127.567 35.242 127.365 35.1171 127.126 35.0322C126.892 34.9472 126.624 34.9047 126.321 34.9047H125.118V33.853H126.249C126.775 33.853 127.235 33.93 127.628 34.084C128.021 34.2381 128.347 34.4505 128.608 34.7214C128.868 34.987 129.062 35.2924 129.189 35.6377C129.322 35.9776 129.388 36.3308 129.388 36.6973V36.8726C129.388 37.2232 129.322 37.5684 129.189 37.9084C129.062 38.2483 128.868 38.5564 128.608 38.8326C128.347 39.1088 128.021 39.3292 127.628 39.4939C127.235 39.6585 126.775 39.7409 126.249 39.7409H125.118ZM124.146 39.7409V33.853H125.277V39.7409H124.146Z" fill="#B8CDFF"></path><path d="M118.321 37.4861L116.568 33.8929H117.732L119.07 36.7053L118.815 36.6256H119.572L119.301 36.7053L120.52 33.8929H121.62L120.002 37.4861H118.321ZM118.608 39.709V37.3108H119.715V39.709H118.608Z" fill="#B8CDFF"></path><path d="M113.436 39.709V34.7294H114.567V39.709H113.436ZM111.754 34.8888V33.8929H116.248V34.8888H111.754Z" fill="#B8CDFF"></path><path d="M108.499 39.709V33.8929H109.63V39.709H108.499ZM109.471 39.709V38.7131H111.981V39.709H109.471Z" fill="#B8CDFF"></path><path d="M101.763 39.709L103.747 33.8929H105.595L107.635 39.709H106.472L104.743 34.6657L105.149 34.841H104.153L104.568 34.6657L102.895 39.709H101.763ZM103.15 38.1633L103.508 37.2073H105.866L106.217 38.1633H103.15Z" fill="#B8CDFF"></path><path d="M99.7544 39.709V33.8929H100.886V39.709H99.7544Z" fill="#B8CDFF"></path><path d="M95.9951 39.8604C95.4693 39.8604 95.0178 39.7674 94.6407 39.5815C94.2635 39.3956 93.9555 39.1539 93.7164 38.8565C93.4827 38.559 93.3101 38.235 93.1986 37.8845C93.087 37.5339 93.0312 37.1966 93.0312 36.8726V36.6973C93.0312 36.3362 93.087 35.9803 93.1986 35.6297C93.3154 35.2792 93.4934 34.9605 93.7324 34.6736C93.9714 34.3868 94.2742 34.1584 94.6407 33.9884C95.0125 33.8132 95.4507 33.7255 95.9553 33.7255C96.4811 33.7255 96.9379 33.8211 97.3256 34.0123C97.7187 34.1983 98.0321 34.4638 98.2658 34.8091C98.4995 35.149 98.6403 35.5474 98.6881 36.0042H97.5487C97.5062 35.7386 97.4106 35.5155 97.2619 35.3349C97.1185 35.149 96.9352 35.0109 96.7122 34.9206C96.4891 34.825 96.2368 34.7772 95.9553 34.7772C95.6684 34.7772 95.4135 34.8277 95.1904 34.9286C94.9673 35.0242 94.7814 35.1623 94.6327 35.3429C94.484 35.5235 94.3698 35.7359 94.2901 35.9803C94.2157 36.2246 94.1785 36.4955 94.1785 36.7929C94.1785 37.0798 94.2157 37.3453 94.2901 37.5897C94.3698 37.834 94.4866 38.0491 94.6407 38.235C94.7947 38.4156 94.9832 38.5564 95.2063 38.6573C95.4347 38.7582 95.6977 38.8087 95.9951 38.8087C96.4306 38.8087 96.7971 38.7025 97.0946 38.49C97.3974 38.2722 97.5806 37.9695 97.6443 37.5817H98.7837C98.7305 37.996 98.5898 38.3758 98.3614 38.721C98.133 39.0663 97.8196 39.3425 97.4213 39.5496C97.0229 39.7568 96.5475 39.8604 95.9951 39.8604Z" fill="#B8CDFF"></path><path d="M88.6816 39.709V33.8929H89.7891V39.709H88.6816ZM89.6298 39.709V38.7529H92.2669V39.709H89.6298ZM89.6298 37.2312V36.2751H92.0598V37.2312H89.6298ZM89.6298 34.8489V33.8929H92.2032V34.8489H89.6298Z" fill="#B8CDFF"></path><path d="M84.4095 37.9243V36.9443H85.5409C85.7693 36.9443 85.9605 36.8992 86.1145 36.8089C86.2739 36.7186 86.3934 36.5938 86.4731 36.4344C86.558 36.2751 86.6005 36.0918 86.6005 35.8847C86.6005 35.6775 86.558 35.4943 86.4731 35.3349C86.3934 35.1756 86.2739 35.0534 86.1145 34.9684C85.9605 34.8781 85.7693 34.833 85.5409 34.833H84.4095V33.853H85.4453C85.9339 33.853 86.3482 33.9327 86.6882 34.092C87.0334 34.2514 87.2963 34.4798 87.4769 34.7772C87.6575 35.0693 87.7478 35.4172 87.7478 35.8209V35.9484C87.7478 36.3521 87.6575 36.7026 87.4769 37.0001C87.2963 37.2922 87.0334 37.5206 86.6882 37.6853C86.3482 37.8446 85.9339 37.9243 85.4453 37.9243H84.4095ZM83.4375 39.709V33.853H84.5689V39.709H83.4375Z" fill="#B8CDFF"></path><path d="M80.0528 39.8604C79.5376 39.8604 79.102 39.778 78.7462 39.6134C78.3956 39.4487 78.1274 39.223 77.9415 38.9362C77.7555 38.644 77.6626 38.3147 77.6626 37.9482H78.7701C78.7701 38.1022 78.8125 38.2536 78.8975 38.4023C78.9825 38.5458 79.118 38.6626 79.3039 38.7529C79.4951 38.8432 79.7447 38.8884 80.0528 38.8884C80.329 38.8884 80.56 38.8485 80.746 38.7688C80.9319 38.6892 81.07 38.5856 81.1603 38.4581C81.2506 38.3253 81.2957 38.1766 81.2957 38.0119C81.2957 37.8048 81.2081 37.6401 81.0328 37.518C80.8575 37.3905 80.5866 37.3108 80.2201 37.279L79.7102 37.2391C79.1525 37.1913 78.7063 37.0187 78.3717 36.7212C78.0424 36.4185 77.8777 36.0201 77.8777 35.5261C77.8777 35.1543 77.9654 34.8356 78.1406 34.5701C78.3159 34.2992 78.5602 34.092 78.8736 33.9486C79.1923 33.7999 79.5641 33.7255 79.9891 33.7255C80.4299 33.7255 80.8097 33.8025 81.1284 33.9566C81.4471 34.1106 81.6941 34.3284 81.8693 34.6099C82.0446 34.8861 82.1323 35.2128 82.1323 35.5899H81.0248C81.0248 35.4305 80.985 35.2845 80.9053 35.1517C80.8309 35.0136 80.7167 34.9047 80.5627 34.825C80.414 34.74 80.2228 34.6975 79.9891 34.6975C79.766 34.6975 79.5801 34.7347 79.4313 34.8091C79.2826 34.8834 79.1711 34.9844 79.0967 35.1118C79.0224 35.2393 78.9852 35.3774 78.9852 35.5261C78.9852 35.7067 79.0516 35.8661 79.1844 36.0042C79.3171 36.137 79.527 36.214 79.8138 36.2352L80.3237 36.283C80.738 36.3149 81.1018 36.4025 81.4152 36.546C81.7286 36.6894 81.9703 36.8832 82.1402 37.1276C82.3155 37.3719 82.4032 37.6667 82.4032 38.0119C82.4032 38.3784 82.3076 38.7025 82.1163 38.984C81.9251 39.2602 81.6516 39.4753 81.2957 39.6293C80.9451 39.7834 80.5308 39.8604 80.0528 39.8604Z" fill="#B8CDFF"></path><path d="M75.4863 39.709V33.8929H76.6177V39.709H75.4863Z" fill="#B8CDFF"></path><path d="M71.7548 39.709V34.7294H72.8862V39.709H71.7548ZM70.0737 34.8888V33.8929H74.5673V34.8888H70.0737Z" fill="#B8CDFF"></path><path d="M66.8184 39.709V33.8929H67.9497V39.709H66.8184ZM67.7904 39.709V38.7131H70.3001V39.709H67.7904Z" fill="#B8CDFF"></path><path d="M62.9999 39.8604C62.4582 39.8604 62.0014 39.7568 61.6296 39.5497C61.2578 39.3425 60.9736 39.053 60.7771 38.6812C60.5858 38.3041 60.4902 37.8632 60.4902 37.3586V33.8929H61.6216V37.4224C61.6216 37.6986 61.6747 37.9429 61.7809 38.1554C61.8872 38.3625 62.0412 38.5245 62.243 38.6414C62.4502 38.7529 62.7025 38.8087 62.9999 38.8087C63.2921 38.8087 63.5391 38.7529 63.7409 38.6414C63.9481 38.5245 64.1021 38.3625 64.203 38.1554C64.3092 37.9482 64.3624 37.7039 64.3624 37.4224V33.8929H65.4937V37.3586C65.4937 37.8632 65.3981 38.3041 65.2069 38.6812C65.021 39.053 64.7421 39.3425 64.3703 39.5497C63.9985 39.7568 63.5417 39.8604 62.9999 39.8604Z" fill="#B8CDFF"></path><path d="M53 39.709V33.8929H54.5457L56.0037 37.3666H56.1471L57.5972 33.8929H59.1667V39.709H58.0433V34.7454L58.1867 34.7613L56.6172 38.5219H55.4619L53.8844 34.7613L54.0358 34.7454V39.709H53Z" fill="#B8CDFF"></path><path d="M176.939 25.3181V10.4482H180.606V25.3181H176.939ZM180.199 25.3181V22.2219H186.473V25.3181H180.199ZM180.199 19.309V16.2128H186.045V19.309H180.199ZM180.199 13.5444V10.4482H186.35V13.5444H180.199Z" fill="white"></path><path d="M167.162 25.3181V13.3407H170.951V25.3181H167.162ZM163.088 13.7481V10.4482H175.025V13.7481H163.088Z" fill="white"></path><path d="M148.144 25.3181L152.911 10.4482H158.981L163.91 25.3181H159.999L156.17 13.0962L157.249 13.5036H154.561L155.661 13.0962L151.933 25.3181H148.144ZM152.035 21.8756L153.175 18.7794H158.818L159.959 21.8756H152.035Z" fill="white"></path><path d="M129.357 25.3181V10.4482H134.612L137.668 18.2905H138.075L141.11 10.4482H146.468V25.3181H142.72V12.6277L143.31 12.6685L139.481 22.3238H136.038L132.188 12.6685L132.82 12.6277V25.3181H129.357Z" fill="white"></path><path d="M122.557 25.3181V10.4482H126.345V25.3181H122.557ZM113.105 25.3181V10.4482H116.894V25.3181H113.105ZM116.242 19.472V16.1721H123.208V19.472H116.242Z" fill="white"></path><path d="M103.328 25.3181V13.3407H107.117V25.3181H103.328ZM99.2539 13.7481V10.4482H111.191V13.7481H99.2539Z" fill="white"></path><path d="M90.4393 25.7255C89.0813 25.7255 87.8998 25.4946 86.8949 25.0329C85.89 24.5576 85.0549 23.9397 84.3894 23.1793C83.724 22.4052 83.2284 21.5701 82.9024 20.6738C82.5765 19.7775 82.4136 18.9084 82.4136 18.0665V17.6183C82.4136 16.6813 82.5833 15.7647 82.9228 14.8684C83.2623 13.9585 83.7716 13.137 84.4506 12.4036C85.1296 11.6703 85.9647 11.0864 86.956 10.6518C87.961 10.2173 89.122 10 90.4393 10C91.743 10 92.8905 10.2173 93.8818 10.6518C94.8867 11.0864 95.7286 11.6703 96.4076 12.4036C97.0866 13.137 97.5959 13.9585 97.9354 14.8684C98.2885 15.7647 98.465 16.6813 98.465 17.6183V18.0665C98.465 18.9084 98.2952 19.7775 97.9557 20.6738C97.6298 21.5701 97.1342 22.4052 96.4688 23.1793C95.8033 23.9397 94.9682 24.5576 93.9633 25.0329C92.9584 25.4946 91.7837 25.7255 90.4393 25.7255ZM90.4393 22.1812C91.0911 22.1812 91.6751 22.0725 92.1911 21.8552C92.7071 21.638 93.1485 21.3324 93.5151 20.9386C93.8818 20.5448 94.1602 20.0899 94.3503 19.5738C94.5404 19.0442 94.6355 18.4738 94.6355 17.8628C94.6355 17.2109 94.5336 16.6202 94.3299 16.0906C94.1398 15.561 93.8614 15.106 93.4948 14.7258C93.1281 14.3456 92.6868 14.0536 92.1707 13.8499C91.6547 13.6462 91.0775 13.5443 90.4393 13.5443C89.7874 13.5443 89.2035 13.6462 88.6875 13.8499C88.1714 14.0536 87.7301 14.3456 87.3634 14.7258C86.9968 15.106 86.7184 15.561 86.5283 16.0906C86.3382 16.6202 86.2431 17.2109 86.2431 17.8628C86.2431 18.4738 86.3382 19.0442 86.5283 19.5738C86.7184 20.0899 86.9968 20.5448 87.3634 20.9386C87.7301 21.3324 88.1714 21.638 88.6875 21.8552C89.2035 22.0725 89.7874 22.1812 90.4393 22.1812Z" fill="white"></path><path d="M72.8343 25.7255C71.4763 25.7255 70.2949 25.4946 69.29 25.0329C68.285 24.5576 67.4499 23.9397 66.7845 23.1793C66.1191 22.4052 65.6234 21.5701 65.2975 20.6738C64.9716 19.7775 64.8086 18.9084 64.8086 18.0665V17.6183C64.8086 16.6813 64.9783 15.7647 65.3178 14.8684C65.6573 13.9585 66.1666 13.137 66.8456 12.4036C67.5246 11.6703 68.3597 11.0864 69.3511 10.6518C70.356 10.2173 71.5171 10 72.8343 10C74.138 10 75.2855 10.2173 76.2768 10.6518C77.2817 11.0864 78.1237 11.6703 78.8027 12.4036C79.4817 13.137 79.9909 13.9585 80.3304 14.8684C80.6835 15.7647 80.86 16.6813 80.86 17.6183V18.0665C80.86 18.9084 80.6903 19.7775 80.3508 20.6738C80.0249 21.5701 79.5292 22.4052 78.8638 23.1793C78.1984 23.9397 77.3632 24.5576 76.3583 25.0329C75.3534 25.4946 74.1787 25.7255 72.8343 25.7255ZM72.8343 22.1812C73.4861 22.1812 74.0701 22.0725 74.5861 21.8552C75.1021 21.638 75.5435 21.3324 75.9101 20.9386C76.2768 20.5448 76.5552 20.0899 76.7453 19.5738C76.9354 19.0442 77.0305 18.4738 77.0305 17.8628C77.0305 17.2109 76.9286 16.6202 76.7249 16.0906C76.5348 15.561 76.2564 15.106 75.8898 14.7258C75.5231 14.3456 75.0818 14.0536 74.5657 13.8499C74.0497 13.6462 73.4726 13.5443 72.8343 13.5443C72.1825 13.5443 71.5985 13.6462 71.0825 13.8499C70.5665 14.0536 70.1251 14.3456 69.7585 14.7258C69.3918 15.106 69.1134 15.561 68.9233 16.0906C68.7332 16.6202 68.6381 17.2109 68.6381 17.8628C68.6381 18.4738 68.7332 19.0442 68.9233 19.5738C69.1134 20.0899 69.3918 20.5448 69.7585 20.9386C70.1251 21.3324 70.5665 21.638 71.0825 21.8552C71.5985 22.0725 72.1825 22.1812 72.8343 22.1812Z" fill="white"></path><path d="M56.1628 25.3181V13.3407H59.9516V25.3181H56.1628ZM52.0889 13.7481V10.4482H64.0256V13.7481H52.0889Z" fill="white"></path><path d="M19.7934 5.06512C19.6611 5.20183 19.5244 5.33536 19.3833 5.46637C16.6518 8.01185 12.369 9.73331 9.27169 9.79723C4.91681 10.3251 12.2633 19.7943 11.5406 28.8877C11.3374 31.4464 9.85711 31.3369 7.83631 29.8573C6.90913 29.1794 5.86867 28.213 4.78327 27.0839C4.78517 26.9694 4.78517 26.8555 4.78517 26.7415C4.78327 25.7688 4.72061 24.8011 4.56746 23.8473C4.41746 22.893 4.18519 21.9506 3.87571 21.0297C3.83774 20.9152 3.80483 20.7981 3.76306 20.6835L3.63711 20.3411C3.55167 20.1139 3.47636 19.8823 3.38269 19.657C3.19789 19.2064 3.02005 18.752 2.81436 18.3089C2.01946 16.5248 1.09797 14.7553 0.522046 12.8326C0.234716 11.8737 0.0353584 10.8763 0.00941005 9.86052C-0.00261479 9.73457 0.0106777 9.60673 0.0113106 9.48015L0.021435 9.09852C0.0423203 8.846 0.0758624 8.59347 0.103709 8.33969C0.154973 8.09033 0.203075 7.84034 0.260034 7.59288C0.335348 7.34922 0.405595 7.10429 0.486605 6.86379C0.837223 5.9094 1.35239 5.02209 1.99414 4.23857L2.11249 4.09111L2.2416 3.95124L2.49855 3.6715C2.58273 3.5772 2.68019 3.49556 2.77069 3.40696C2.86373 3.32152 2.95296 3.23228 3.04853 3.14874C3.43649 2.8228 3.839 2.51268 4.27506 2.25573C5.14212 1.73233 6.1003 1.3488 7.10406 1.17792C7.60467 1.09945 8.11858 1.05324 8.61982 1.07286C9.12233 1.07919 9.62231 1.12413 10.1185 1.19121C12.107 1.46779 13.9924 2.16396 15.7892 2.98735C16.6885 3.40063 17.5688 3.85061 18.4365 4.31895C18.8922 4.56514 19.3434 4.81323 19.7941 5.06576L19.7934 5.06512Z" fill="#B8CDFF"></path><path d="M10.9288 47.5977L11.2446 49.9401C11.0389 49.9882 10.8269 50.0122 10.6161 49.9938C10.3364 49.9863 10.0706 49.9065 9.81618 49.816C9.69403 49.7622 9.57125 49.7046 9.45227 49.6458C9.33961 49.5768 9.22569 49.5103 9.11557 49.4394C8.68394 49.1432 8.30801 48.7838 7.97764 48.3933C7.64664 48.0021 7.36121 47.5813 7.10679 47.1452C6.59858 46.2718 6.21063 45.3427 5.89355 44.3959C5.57521 43.4491 5.32965 42.4834 5.12966 41.5093C4.7341 39.5607 4.52652 37.581 4.46386 35.5982C4.43538 34.6071 4.44551 33.6109 4.5012 32.6204C4.55247 31.6357 4.61702 30.6522 4.67525 29.6712C4.73664 28.6908 4.78916 27.7136 4.78663 26.7415C4.78473 25.7688 4.72208 24.8011 4.56892 23.8473C4.41892 22.8929 4.18665 21.9506 3.87717 21.0297C3.8392 20.9152 3.80629 20.7981 3.76452 20.6835L3.63858 20.3411C3.55314 20.1139 3.47782 19.8823 3.38416 19.657C3.19935 19.2064 3.02151 18.7519 2.81583 18.3089C2.02092 16.5248 1.09944 14.7553 0.523512 12.8325C0.236182 11.8737 0.0368241 10.8763 0.0108758 9.8605C-0.00114906 9.73456 0.0121395 9.60671 0.0127724 9.48014L0.0229008 9.0985C0.043786 8.84598 0.0773282 8.59346 0.105175 8.33967C0.156439 8.09031 0.204536 7.84032 0.261496 7.59286C0.33681 7.3492 0.407061 7.10427 0.48807 6.86377C0.838689 5.90938 1.35386 5.02207 1.99561 4.23855L2.11395 4.09109L2.24306 3.95122L2.50001 3.67149C2.58419 3.57719 2.68165 3.49554 2.77216 3.40694C2.86519 3.3215 2.95443 3.23226 3.04999 3.14872C3.13986 3.07341 3.2291 2.99872 3.32087 2.92657L4.70056 3.76579C4.51576 4.28855 4.355 4.77271 4.22083 5.22713C2.99746 9.3371 3.81452 10.9883 6.6682 16.0077C9.83833 21.5822 13.2679 25.5106 10.5693 35.4064C8.52445 42.9036 9.7858 46.0383 10.518 47.1174C10.5978 47.2357 10.6712 47.3281 10.7332 47.4003C10.7396 47.4079 10.7453 47.4142 10.7516 47.4212C10.8611 47.5446 10.9307 47.5971 10.9307 47.5971L10.9288 47.5977Z" fill="white"></path><path d="M39.0557 17.6356C36.1046 23.9752 36.7602 26.5985 37.0881 32.8287C37.3393 37.6051 37.1178 44.4194 32.6066 47.4756C29.2181 49.7711 27.0157 45.6833 26.3765 39.7151C25.7449 33.8179 23.8956 28.9351 21.2197 28.5871C28.9125 28.8408 28.3859 44.2131 31.2832 43.784C34.2344 43.3466 35.4369 35.0393 34.016 28.5908C32.5952 22.1417 33.2509 19.6279 35.6559 11.5389C38.0608 3.45063 29.7536 2.46649 21.3349 5.65055C27.5771 2.08802 36.7286 -2.02892 40.6949 5.96636C42.66 9.92887 40.7607 13.9749 39.0563 17.6356H39.0557Z" fill="white"></path><path d="M20.9948 28.4105C20.9948 28.4105 20.9935 28.4092 20.9929 28.4105C20.9916 28.4092 20.991 28.4092 20.9897 28.4092C20.9809 28.4073 20.9714 28.4048 20.9613 28.4048C20.9613 28.4048 20.9613 28.4035 20.96 28.4048C20.9556 28.4035 20.9524 28.4035 20.9499 28.4035H20.9397C20.6765 28.3738 20.4043 28.3826 20.1322 28.4295C19.8645 28.4871 19.6031 28.5826 19.3537 28.7029C18.8632 28.9529 18.4259 29.2978 18.0462 29.6801C17.2962 30.4585 16.7292 31.361 16.2501 32.2882C15.2982 34.1508 14.6868 36.1311 14.2204 38.1297C14.159 38.3804 14.1103 38.6316 14.0565 38.8829L13.9109 39.6303C13.821 40.093 13.7217 40.5518 13.6128 41.0062C13.3919 41.9157 13.1502 42.8119 12.8521 43.6675C12.5527 44.52 12.2205 45.3478 11.8281 46.056C11.6338 46.4079 11.4249 46.7326 11.2148 46.9832C11.0085 47.2345 10.7984 47.4085 10.6959 47.4478C10.6838 47.4509 10.6731 47.4566 10.6617 47.463C10.6541 47.463 10.6497 47.4585 10.644 47.4585C10.6319 47.4674 10.6395 47.4408 10.6471 47.4421C10.6516 47.4408 10.661 47.4269 10.6699 47.4237C10.6788 47.418 10.6883 47.4225 10.6997 47.4117C10.7104 47.4041 10.7224 47.4009 10.7345 47.4009C10.7465 47.4022 10.7541 47.3889 10.7648 47.3889C10.7693 47.3876 10.775 47.3876 10.78 47.3889L10.7864 47.3902L10.7895 47.3857C10.7952 47.38 10.7996 47.3781 10.8034 47.3781C10.8098 47.3826 10.8053 47.3718 10.8022 47.3674C10.8003 47.3617 10.7965 47.3585 10.7933 47.3573C10.775 47.3389 10.7541 47.3225 10.7288 47.3073C10.6959 47.2744 10.6629 47.2503 10.6262 47.2218C10.4566 47.0731 10.2623 46.8763 10.0744 46.6218C9.88513 46.3693 9.70032 46.0674 9.53008 45.7352C9.18452 45.0694 8.90162 44.2903 8.65479 43.4739C8.40987 42.6574 8.21874 41.7935 8.06684 40.9151C7.92128 40.0341 7.79787 39.1386 7.71623 38.2348C7.63395 37.331 7.58965 36.4216 7.58079 35.5121C7.57889 35.0577 7.57446 34.6039 7.58395 34.1527C7.58838 33.9261 7.59471 33.7014 7.60484 33.4774L7.62003 33.1407L7.64091 32.7907C7.69787 31.8312 7.77002 30.8604 7.83521 29.8623V29.8566C7.89407 28.8617 7.94153 27.8181 7.93267 26.7264C7.92255 25.6346 7.84533 24.4847 7.6504 23.3512C7.45358 22.2177 7.15739 21.1095 6.79031 20.0709C6.42514 19.0292 6.01946 18.0267 5.55619 17.0824L5.38594 16.7261C5.32898 16.6078 5.27139 16.4856 5.21633 16.3786L4.8828 15.7154C4.66445 15.2781 4.4499 14.8521 4.24991 14.4357C3.85309 13.5984 3.48602 12.7984 3.21261 12.0212C2.9373 11.2453 2.76136 10.4985 2.69807 9.78902C2.68162 9.69851 2.68795 9.61307 2.68162 9.52573L2.66833 9.26245C2.67149 9.08841 2.68478 8.91816 2.68668 8.74412C2.71263 8.57577 2.73288 8.40552 2.75693 8.23338C2.79934 8.06629 2.83351 7.89668 2.87591 7.72516C3.0816 7.04101 3.39615 6.36003 3.82714 5.74106L3.90562 5.62271L3.99423 5.51259L4.1689 5.28854C4.22586 5.21197 4.29484 5.14741 4.35687 5.07526C4.42142 5.00628 4.48281 4.93223 4.54926 4.86451C4.82267 4.60313 5.09924 4.33668 5.40936 4.1158C6.02136 3.66329 6.70994 3.31646 7.44029 3.11267L7.71559 3.04622L7.85546 3.01015C7.90166 3.00002 7.94849 2.99622 7.99533 2.988L8.27823 2.94433L8.34911 2.9323C8.37316 2.92914 8.40164 2.92914 8.42759 2.9266L8.58708 2.91648C9.01238 2.87914 9.4459 2.88357 9.88639 2.89433C10.7686 2.92155 11.6737 3.05065 12.5838 3.24622C13.4976 3.43672 14.4103 3.70316 15.3292 3.99492C16.245 4.29428 17.1646 4.62591 18.0848 4.97527C18.5152 5.13602 18.9481 5.29994 19.3803 5.46576C19.4107 5.47778 19.4404 5.48854 19.4708 5.50056L20.1638 5.76954L20.8581 6.02966L20.8885 6.04042C20.9587 6.06763 21.0404 6.03915 21.0796 5.97143C21.122 5.89612 21.0961 5.79992 21.0208 5.75688C20.6087 5.52271 20.1999 5.29108 19.7898 5.06387C19.3392 4.81135 18.8879 4.56326 18.4323 4.31706C17.5646 3.84936 16.6842 3.39874 15.7849 2.98547C13.9881 2.16208 12.1021 1.4659 10.1142 1.18933C9.61805 1.12288 9.1187 1.07794 8.61556 1.07098C8.11368 1.05136 7.60041 1.09693 7.0998 1.17604C6.09667 1.34628 5.13785 1.73045 4.2708 2.25385C3.83474 2.5108 3.43222 2.82092 3.04426 3.14685C2.94933 3.22976 2.85946 3.31963 2.76642 3.40507C2.67592 3.49368 2.57846 3.57532 2.49428 3.66962L2.23733 3.94935L2.10823 4.08922L1.98987 4.23668C1.34813 5.0202 0.833594 5.90815 0.482342 6.86191C0.401332 7.10241 0.331714 7.34733 0.255768 7.59099C0.198808 7.83782 0.150707 8.08844 0.0994427 8.3378C0.0722286 8.59159 0.0380536 8.84411 0.0171683 9.09664L0.00704387 9.47827C0.00577809 9.60484 -0.00688148 9.73269 0.00514335 9.85863C0.0310917 10.8738 0.230453 11.8719 0.517783 12.8307C1.09371 14.7534 2.01519 16.5229 2.81009 18.3071C3.01578 18.7494 3.19362 19.2045 3.37842 19.6551C3.47272 19.8804 3.54804 20.1121 3.63285 20.3393L3.75879 20.6817C3.80056 20.7962 3.83284 20.9133 3.87145 21.0278C4.18093 21.9493 4.41383 22.8917 4.56319 23.8455C4.71635 24.7999 4.77837 25.7669 4.7809 26.7397C4.7809 26.8536 4.7809 26.9669 4.779 27.0821C4.77141 27.9403 4.72457 28.8035 4.66951 29.6693C4.61129 30.6496 4.54737 31.6338 4.49547 32.6186C4.43978 33.609 4.42965 34.6046 4.45813 35.5963C4.52015 37.5791 4.72837 39.5588 5.12392 41.5075C5.32392 42.4815 5.57011 43.4479 5.88782 44.3941C6.20489 45.3409 6.59285 46.27 7.10106 47.1433C7.35548 47.5794 7.64091 48.0003 7.97191 48.3914C8.30228 48.7819 8.67821 49.1414 9.10984 49.4376C9.21996 49.5085 9.33388 49.5755 9.44654 49.6439C9.56552 49.7027 9.6883 49.761 9.81044 49.8141C10.0649 49.9046 10.3307 49.9844 10.6104 49.992C10.8889 50.0173 11.1699 49.966 11.4357 49.8869C11.5635 49.8369 11.6971 49.7952 11.8142 49.7243C11.8743 49.6914 11.9357 49.661 11.9933 49.6262L12.1597 49.5116C12.597 49.199 12.9388 48.7977 13.2299 48.3781C13.5198 47.9553 13.7565 47.5073 13.9679 47.0509C14.3887 46.1358 14.6957 45.1839 14.9495 44.2219C15.2007 43.2599 15.3944 42.2853 15.5431 41.3043C15.6184 40.8145 15.6811 40.3227 15.7343 39.8297L15.8172 39.0993C15.8501 38.8569 15.8773 38.6139 15.9121 38.3728C16.0463 37.4045 16.214 36.4393 16.4368 35.4893C16.6576 34.5375 16.9285 33.5983 17.2753 32.6901C17.626 31.785 18.0506 30.9009 18.6297 30.1376C18.9196 29.7573 19.2582 29.4174 19.6442 29.1529C19.8411 29.0269 20.0474 28.92 20.2651 28.8434C20.4834 28.7731 20.7113 28.7333 20.9404 28.7244L20.9448 28.7231H20.9461C20.9518 28.7231 20.9562 28.7231 20.9613 28.7219H20.9625L20.9644 28.7231H20.9708L20.9961 28.7174C21.0663 28.7041 21.1207 28.6434 21.1239 28.5687C21.1258 28.4877 21.0682 28.4187 20.9897 28.408L20.9948 28.4105ZM21.0157 28.7111C21.0113 28.713 21.0068 28.7143 21.0018 28.7155C21.0075 28.7136 21.0094 28.7124 21.0125 28.7098L20.9613 28.7219L20.841 28.6814C20.8543 28.6947 20.8619 28.6991 20.8714 28.7054C20.8537 28.6966 20.8429 28.6871 20.8366 28.6801H21.0594C21.0492 28.6902 21.0366 28.701 21.0157 28.7105V28.7111Z" fill="#316DFF"></path><path d="M9.34735 9.77001C10.4239 9.67697 11.465 9.45546 12.4732 9.14914C12.9769 8.99851 13.475 8.81814 13.9611 8.62954C14.4446 8.43525 14.9186 8.22513 15.38 7.99032C15.8408 7.75426 16.2939 7.50743 16.7312 7.23529C16.9496 7.09795 17.1673 6.96125 17.3806 6.81758L18.04 6.36633C18.4919 6.05559 18.9495 5.75813 19.4052 5.45434L20.0893 5.00119C20.3178 4.8512 20.5513 4.70564 20.7849 4.55881C22.6538 3.38606 24.6113 2.30446 26.7163 1.4412C27.77 1.0159 28.858 0.631731 30.0009 0.371614C30.5724 0.241872 31.1547 0.140612 31.7496 0.0728928C32.3452 0.0140342 32.9508 -0.0169773 33.5635 0.009604C34.1761 0.0418813 34.7951 0.108968 35.4064 0.258962C35.7121 0.330479 36.0153 0.420348 36.314 0.523509C36.6114 0.632999 36.9051 0.751981 37.1893 0.894381C37.7608 1.17032 38.2911 1.5279 38.7702 1.92978C39.2512 2.33104 39.6733 2.78735 40.0404 3.27025C40.4075 3.75377 40.7201 4.26451 40.9853 4.78791C41.117 5.05056 41.2391 5.31447 41.3537 5.58092C41.4106 5.71509 41.4631 5.85622 41.5176 5.99293C41.5701 6.13153 41.6138 6.27393 41.6619 6.41317C41.8454 6.97581 41.9644 7.55743 42.0315 8.13842C42.0973 8.72005 42.1024 9.30294 42.0676 9.8757L42.053 10.0909L42.0302 10.3042C42.0176 10.4466 41.9954 10.5877 41.9764 10.7288C41.9391 11.0111 41.8884 11.2902 41.8315 11.5668C41.7144 12.1193 41.5676 12.6617 41.4005 13.1933C41.0676 14.2578 40.6531 15.2825 40.2252 16.2913L39.579 17.795C39.3721 18.2919 39.167 18.7849 38.9873 19.2867C38.8044 19.7874 38.636 20.2911 38.4924 20.7994C38.3437 21.3063 38.2202 21.817 38.1221 22.329C38.0228 22.841 37.9449 23.3531 37.8949 23.8663C37.8456 24.3796 37.8228 24.8929 37.8228 25.408C37.8222 26.4378 37.907 27.4763 38.0253 28.5364C38.2525 30.6591 38.5405 32.8325 38.612 35.0912C38.6487 36.2165 38.6405 37.3544 38.5576 38.5038C38.4759 39.6531 38.3145 40.8138 38.0342 41.9771C37.7437 43.1352 37.3374 44.3036 36.7165 45.4073C36.1032 46.5104 35.2735 47.5515 34.2432 48.373L34.0495 48.5256L33.8508 48.6711C33.785 48.7199 33.716 48.7648 33.6483 48.8116L33.5457 48.8812L33.4325 48.954C33.1274 49.1458 32.7964 49.3287 32.4179 49.4724C32.042 49.6173 31.6224 49.7293 31.1667 49.7673C30.7136 49.8084 30.2282 49.7635 29.7769 49.6344C29.3244 49.5065 28.9124 49.2983 28.5649 49.0565C28.2156 48.8148 27.9251 48.5407 27.6764 48.2616C27.1789 47.7009 26.8441 47.1123 26.5675 46.5345C26.022 45.375 25.7258 44.2226 25.5056 43.0808C25.3992 42.5093 25.3208 41.9397 25.2581 41.372C25.2277 41.0885 25.1992 40.8049 25.1803 40.5214L25.1524 40.0967L25.1303 39.6847C25.1005 39.1588 25.0619 38.6335 25.0151 38.1095C24.9682 37.5848 24.9056 37.0627 24.8372 36.5418C24.6948 35.5007 24.5088 34.4666 24.2461 33.4577C23.9822 32.4515 23.6487 31.4616 23.1538 30.5756C22.9063 30.1351 22.6164 29.7193 22.2532 29.387C22.0709 29.2231 21.8741 29.0744 21.6557 28.9604C21.4374 28.8465 21.1994 28.7693 20.9469 28.7282L20.8361 28.6826C20.8551 28.6997 20.8633 28.7041 20.8811 28.713C20.8975 28.7206 20.919 28.7269 20.9444 28.7275C20.969 28.7282 20.9969 28.7218 21.0171 28.7124C21.0387 28.7022 21.0519 28.6915 21.0627 28.6807H20.833C20.8425 28.6896 20.8602 28.7054 20.888 28.7161C20.9165 28.7275 20.9481 28.7282 20.9659 28.7256C21.0032 28.7193 21.0089 28.713 21.0159 28.7105L20.9273 28.7269L20.9108 28.7225L20.8773 28.7136C20.7937 28.6915 20.7437 28.6054 20.7665 28.5219C20.7849 28.4541 20.8444 28.4092 20.9108 28.406L20.9595 28.4035L20.8709 28.42C20.8792 28.4168 20.8868 28.4098 20.9254 28.4029C20.9443 28.3997 20.9766 28.401 21.0057 28.4124C21.0349 28.4238 21.0532 28.4396 21.0627 28.4491H20.833C20.8444 28.4377 20.8576 28.4269 20.8792 28.4162C20.8994 28.406 20.9279 28.3997 20.9532 28.401C20.9785 28.4016 21.0007 28.4079 21.0178 28.4155C21.0361 28.4244 21.0443 28.4288 21.0633 28.4465L20.9526 28.401C21.5361 28.3371 22.1532 28.5098 22.6664 28.8155C23.1829 29.1225 23.6221 29.5319 24.0012 29.975C24.3797 30.4205 24.705 30.9009 24.9923 31.3971C25.2822 31.8926 25.5328 32.4053 25.7619 32.9249C26.2182 33.9653 26.5758 35.0374 26.8732 36.1222C27.0239 36.664 27.1523 37.2108 27.2713 37.7589C27.3909 38.3069 27.4947 38.8582 27.5846 39.4113L27.6523 39.8088L27.7238 40.1923C27.7732 40.4474 27.8245 40.7012 27.8782 40.953C27.9871 41.4575 28.1118 41.9543 28.2523 42.4397C28.3903 42.9258 28.5459 43.4004 28.7244 43.8529C28.9042 44.3042 29.0959 44.7383 29.3181 45.125C29.5364 45.5111 29.7858 45.8497 30.025 46.0889C30.1446 46.2073 30.2617 46.2984 30.3642 46.3573C30.4674 46.4174 30.5522 46.4453 30.6243 46.4566C30.6971 46.4687 30.7617 46.4649 30.8484 46.4528C30.9338 46.4402 31.0433 46.4085 31.1712 46.3522C31.2977 46.2972 31.4446 46.2155 31.5952 46.1136L31.6521 46.075L31.7167 46.0282C31.7597 45.9959 31.804 45.9662 31.8464 45.9332C31.9313 45.8681 32.0154 45.8022 32.0983 45.7339C32.7578 45.1883 33.3122 44.5086 33.7736 43.7283C34.2261 42.9428 34.5932 42.0638 34.8647 41.1271C35.145 40.1923 35.3349 39.2037 35.4697 38.1937C35.6026 37.1823 35.6735 36.1482 35.7007 35.1026C35.7146 34.5799 35.7165 34.0539 35.714 33.5261C35.7121 33.2609 35.7089 32.9989 35.702 32.7299L35.6874 31.9236C35.6646 30.8465 35.6419 29.7592 35.6469 28.6497C35.6596 27.5421 35.7001 26.4061 35.8526 25.2694C36.0032 24.1328 36.2646 23.0081 36.6165 21.9329C36.9709 20.8569 37.4025 19.8253 37.8709 18.8228C38.1032 18.321 38.3468 17.8254 38.5943 17.3362C38.8348 16.8495 39.0797 16.3679 39.3063 15.8805C39.7632 14.9072 40.1778 13.9211 40.4872 12.911C40.6417 12.406 40.7657 11.8952 40.8486 11.3813C40.8898 11.1244 40.9252 10.8674 40.9473 10.6105C40.9594 10.482 40.967 10.3535 40.9701 10.2251L40.9771 10.0327V9.84089C40.9758 8.81814 40.7587 7.81755 40.3391 6.92011C40.2828 6.80936 40.2315 6.6967 40.1721 6.58785C40.11 6.47962 40.0531 6.37203 39.9885 6.26381C39.9214 6.15622 39.8569 6.04673 39.7885 5.9404C39.7176 5.83598 39.6487 5.73028 39.5759 5.62838C39.2848 5.22017 38.9651 4.84297 38.619 4.50818C37.9291 3.83352 37.1272 3.34683 36.2665 3.06456C35.4064 2.77723 34.4862 2.67976 33.5407 2.7152C33.0679 2.73229 32.5882 2.77976 32.1072 2.85697C31.6249 2.92532 31.1401 3.03038 30.6554 3.14809C29.6845 3.3848 28.7067 3.68795 27.7396 4.05313C27.2568 4.2373 26.7726 4.4278 26.291 4.63159C25.8093 4.83411 25.3315 5.05246 24.8524 5.2727C23.8936 5.71193 22.9443 6.19039 21.9918 6.67582C21.0424 7.172 20.0843 7.68084 19.1261 8.1745L18.3875 8.55739C18.1324 8.68777 17.8723 8.80865 17.6103 8.92383C17.085 9.15231 16.5528 9.36369 16.0078 9.53521C15.4642 9.70988 14.9123 9.85925 14.3547 9.97063C13.7984 10.0839 13.2421 10.1681 12.6795 10.2206C11.558 10.3269 10.4195 10.2997 9.32773 10.0833C9.24102 10.0662 9.1847 9.98203 9.20179 9.89532C9.21571 9.8238 9.27583 9.77317 9.34482 9.76684H9.34608L9.34735 9.77001Z" fill="#316DFF"></path></svg>