<svg width="27" height="22" viewBox="0 0 27 22" fill="none" xmlns="http://www.w3.org/2000/svg">
<path d="M26.0553 0.521661C26.2416 0.464862 26.444 0.521965 26.5739 0.667168C26.7037 0.812442 26.7371 1.01959 26.6598 1.19842L18.8581 19.2258C18.801 19.3574 18.6898 19.4578 18.5534 19.5021C18.4169 19.5464 18.2677 19.5303 18.1442 19.4572L0.74477 9.14373C0.574455 9.04277 0.480045 8.85009 0.503559 8.6535C0.527175 8.45715 0.664095 8.29351 0.853169 8.23553L26.0553 0.521661ZM2.22719 8.85955L18.1647 18.3068L25.3122 1.7951L2.22719 8.85955Z" fill="#316DFF"/>
<path d="M25.8926 0.606378C26.1099 0.436278 26.4245 0.474191 26.5947 0.691339C26.7648 0.908676 26.7269 1.22323 26.5098 1.39349L10.1992 14.1581V19.6142L13.2607 15.9267C13.4371 15.7145 13.7525 15.685 13.9648 15.8613C14.1772 16.0375 14.2063 16.3529 14.0303 16.5654L10.084 21.3193C9.94942 21.4814 9.72746 21.5422 9.5293 21.4706C9.33113 21.3991 9.19922 21.2106 9.19922 20.9999V13.915L9.21191 13.8017C9.23747 13.6917 9.30004 13.5925 9.39062 13.5214L25.8926 0.606378Z" fill="#316DFF"/>
</svg>
